<svg width="18" height="19" viewBox="0 0 18 19" fill="none" xmlns="http://www.w3.org/2000/svg">
<path d="M7.09261 0.853516C5.94178 0.853516 5.00928 1.78602 5.00928 2.93685V4.18685H1.67594C0.755111 4.18685 0.00927734 4.93268 0.00927734 5.85352V8.35352C0.00927734 8.81352 0.382611 9.18685 0.842611 9.18685H1.14046C2.23046 9.18685 3.22205 9.97117 3.33122 11.0553C3.45622 12.3028 2.48094 13.3535 1.25928 13.3535H0.842611C0.382611 13.3535 0.00927734 13.7268 0.00927734 14.1868V16.6868C0.00927734 17.6077 0.755111 18.3535 1.67594 18.3535H4.17594C4.63594 18.3535 5.00928 17.9802 5.00928 17.5202V17.2223C5.00928 16.1323 5.7936 15.1407 6.87777 15.0316C8.12527 14.9066 9.17594 15.8818 9.17594 17.1035V17.5202C9.17594 17.9802 9.54928 18.3535 10.0093 18.3535H12.5093C13.4301 18.3535 14.1759 17.6077 14.1759 16.6868V13.3535H15.4259C16.5768 13.3535 17.5093 12.421 17.5093 11.2702C17.5093 10.1193 16.5768 9.18685 15.4259 9.18685H14.1759V5.85352C14.1759 4.93268 13.4301 4.18685 12.5093 4.18685H9.17594V2.93685C9.17594 1.78602 8.24344 0.853516 7.09261 0.853516Z" fill="#545454"/>
</svg>
