<svg width="14" height="17" viewBox="0 0 14 17" fill="none" xmlns="http://www.w3.org/2000/svg">
<path d="M1.81126 1.4033V15.0211L5.63098 11.9646C5.96265 11.6993 6.37473 11.5547 6.79947 11.5547C7.2242 11.5547 7.63628 11.6993 7.96795 11.9646L11.7877 15.0199V1.4033H1.81126ZM1.18773 0.15625H12.4112C12.5766 0.15625 12.7352 0.221943 12.8521 0.338876C12.969 0.45581 13.0347 0.614406 13.0347 0.779776V16.318C13.0346 16.4354 13.0013 16.5503 12.9387 16.6495C12.8762 16.7488 12.7869 16.8284 12.6812 16.8792C12.5754 16.93 12.4574 16.9499 12.3409 16.9367C12.2243 16.9235 12.1138 16.8776 12.0221 16.8044L7.18855 12.9385C7.07806 12.8503 6.94086 12.8022 6.79947 12.8022C6.65807 12.8022 6.52088 12.8503 6.41039 12.9385L1.57681 16.8044C1.48513 16.8776 1.37465 16.9235 1.25807 16.9367C1.14149 16.9499 1.02354 16.93 0.91778 16.8792C0.812018 16.8284 0.722734 16.7488 0.660189 16.6495C0.597644 16.5503 0.564376 16.4354 0.564209 16.318V0.779776C0.564209 0.614406 0.629902 0.45581 0.746836 0.338876C0.863769 0.221943 1.02237 0.15625 1.18773 0.15625Z" fill="#222222"/>
</svg>
