<svg width="21" height="21" viewBox="0 0 21 21" fill="none" xmlns="http://www.w3.org/2000/svg">
<g clip-path="url(#clip0_341_7326)">
<path d="M17.7593 0.632812H3.75928C2.10242 0.632812 0.759277 1.97596 0.759277 3.63281V17.6328C0.759277 19.2897 2.10242 20.6328 3.75928 20.6328H17.7593C19.4161 20.6328 20.7593 19.2897 20.7593 17.6328V3.63281C20.7593 1.97596 19.4161 0.632812 17.7593 0.632812Z" fill="#7289DA"/>
<path d="M14.2749 15.9453L13.4546 14.9688C15.0562 14.5391 15.6812 13.4453 15.6812 13.4453C13.6499 15.3594 8.10303 15.4375 5.95459 13.4453C5.95459 13.4453 6.50146 14.4609 8.14209 14.9688L7.24365 15.9453C4.50928 15.9062 3.45459 14.0703 3.45459 14.0703C3.45459 10.0078 5.25146 6.76562 5.25146 6.76562C7.0874 5.47656 8.76709 5.47656 8.76709 5.47656L8.88428 5.63281C6.61865 6.25781 5.64209 7.27344 5.64209 7.27344C8.29834 5.47656 13.7671 5.63281 15.9155 7.27344C15.9546 7.23438 14.6265 6.17969 12.5562 5.63281L12.7515 5.47656C12.7515 5.47656 14.4312 5.47656 16.2671 6.76562C16.2671 6.76562 18.064 10.0078 18.064 14.0703C18.064 14.0703 17.0093 15.9062 14.2749 15.9453Z" fill="white"/>
<path d="M8.41553 12.8984C9.12746 12.8984 9.70459 12.2863 9.70459 11.5312C9.70459 10.7762 9.12746 10.1641 8.41553 10.1641C7.7036 10.1641 7.12646 10.7762 7.12646 11.5312C7.12646 12.2863 7.7036 12.8984 8.41553 12.8984Z" fill="#7289DA"/>
<path d="M12.9468 12.8984C13.6587 12.8984 14.2358 12.2863 14.2358 11.5312C14.2358 10.7762 13.6587 10.1641 12.9468 10.1641C12.2348 10.1641 11.6577 10.7762 11.6577 11.5312C11.6577 12.2863 12.2348 12.8984 12.9468 12.8984Z" fill="#7289DA"/>
</g>
<defs>
<clipPath id="clip0_341_7326">
<rect width="20" height="20" fill="white" transform="translate(0.759277 0.632812)"/>
</clipPath>
</defs>
</svg>
