<svg width="13" height="19" viewBox="0 0 13 19" fill="none" xmlns="http://www.w3.org/2000/svg">
<g clip-path="url(#clip0_341_7305)">
<path d="M3.0099 18.8504C4.66557 18.8504 6.0093 17.5066 6.0093 15.851V12.8516H3.0099C1.35423 12.8516 0.010498 14.1953 0.010498 15.851C0.010498 17.5066 1.35423 18.8504 3.0099 18.8504Z" fill="#0ACF83"/>
<path d="M0.010498 9.85194C0.010498 8.19627 1.35423 6.85254 3.0099 6.85254H6.0093V12.8513H3.0099C1.35423 12.8513 0.010498 11.5076 0.010498 9.85194Z" fill="#A259FF"/>
<path d="M0.0124512 3.85292C0.0124512 2.19725 1.35618 0.853516 3.01185 0.853516H6.01125V6.85231H3.01185C1.35618 6.85231 0.0124512 5.50858 0.0124512 3.85292Z" fill="#F24E1E"/>
<path d="M6.00928 0.853516H9.00868C10.6643 0.853516 12.0081 2.19725 12.0081 3.85292C12.0081 5.50858 10.6643 6.85231 9.00868 6.85231H6.00928V0.853516Z" fill="#FF7262"/>
<path d="M12.0081 9.85194C12.0081 11.5076 10.6643 12.8513 9.00868 12.8513C7.35301 12.8513 6.00928 11.5076 6.00928 9.85194C6.00928 8.19627 7.35301 6.85254 9.00868 6.85254C10.6643 6.85254 12.0081 8.19627 12.0081 9.85194Z" fill="#1ABCFE"/>
</g>
<defs>
<clipPath id="clip0_341_7305">
<rect width="12" height="17.9964" fill="white" transform="translate(0.00927734 0.853516)"/>
</clipPath>
</defs>
</svg>
