<svg width="19" height="18" viewBox="0 0 19 18" fill="none" xmlns="http://www.w3.org/2000/svg">
<path d="M1.24134 3.68346H1.32522C1.45416 4.19004 1.7482 4.63922 2.16091 4.96004C2.57361 5.28086 3.08144 5.45503 3.60418 5.45503C4.12691 5.45503 4.63474 5.28086 5.04744 4.96004C5.46015 4.63922 5.75419 4.19004 5.88313 3.68346H17.7812C17.9378 3.68346 18.0881 3.62122 18.1989 3.51044C18.3096 3.39966 18.3719 3.24941 18.3719 3.09275C18.3719 2.93608 18.3096 2.78583 18.1989 2.67506C18.0881 2.56428 17.9378 2.50204 17.7812 2.50204H5.88313C5.75419 1.99546 5.46015 1.54628 5.04744 1.22546C4.63474 0.904636 4.12691 0.730469 3.60418 0.730469C3.08144 0.730469 2.57361 0.904636 2.16091 1.22546C1.7482 1.54628 1.45416 1.99546 1.32522 2.50204H1.24134C1.08468 2.50204 0.934428 2.56428 0.823649 2.67506C0.71287 2.78583 0.650635 2.93608 0.650635 3.09275C0.650635 3.24941 0.71287 3.39966 0.823649 3.51044C0.934428 3.62122 1.08468 3.68346 1.24134 3.68346ZM3.60418 1.91133C3.83784 1.91133 4.06625 1.98062 4.26054 2.11044C4.45482 2.24025 4.60624 2.42476 4.69566 2.64064C4.78508 2.85652 4.80848 3.09406 4.76289 3.32323C4.71731 3.5524 4.60479 3.76291 4.43956 3.92814C4.27434 4.09336 4.06383 4.20588 3.83466 4.25147C3.60549 4.29705 3.36794 4.27365 3.15207 4.18424C2.93619 4.09482 2.75168 3.94339 2.62186 3.74911C2.49205 3.55483 2.42276 3.32641 2.42276 3.09275C2.42276 2.77942 2.54723 2.47892 2.76879 2.25736C2.99035 2.0358 3.29085 1.91133 3.60418 1.91133ZM17.7812 8.40912H17.6973C17.5684 7.90254 17.2743 7.45336 16.8616 7.13254C16.4489 6.81172 15.9411 6.63755 15.4183 6.63755C14.8956 6.63755 14.3878 6.81172 13.9751 7.13254C13.5624 7.45336 13.2683 7.90254 13.1394 8.40912H1.24134C1.08468 8.40912 0.934428 8.47136 0.823649 8.58214C0.71287 8.69292 0.650635 8.84317 0.650635 8.99983C0.650635 9.1565 0.71287 9.30675 0.823649 9.41753C0.934428 9.52831 1.08468 9.59054 1.24134 9.59054H13.1394C13.2683 10.0971 13.5624 10.5463 13.9751 10.8671C14.3878 11.1879 14.8956 11.3621 15.4183 11.3621C15.9411 11.3621 16.4489 11.1879 16.8616 10.8671C17.2743 10.5463 17.5684 10.0971 17.6973 9.59054H17.7812C17.9378 9.59054 18.0881 9.52831 18.1989 9.41753C18.3096 9.30675 18.3719 9.1565 18.3719 8.99983C18.3719 8.84317 18.3096 8.69292 18.1989 8.58214C18.0881 8.47136 17.9378 8.40912 17.7812 8.40912ZM15.4183 10.1812C15.1847 10.1812 14.9563 10.112 14.762 9.98214C14.5677 9.85233 14.4163 9.66782 14.3269 9.45194C14.2374 9.23606 14.214 8.99852 14.2596 8.76935C14.3052 8.54018 14.4177 8.32967 14.583 8.16444C14.7482 7.99922 14.9587 7.8867 15.1879 7.84112C15.417 7.79553 15.6546 7.81893 15.8705 7.90835C16.0863 7.99776 16.2708 8.14919 16.4007 8.34347C16.5305 8.53775 16.5998 8.76617 16.5998 8.99983C16.5998 9.31316 16.4753 9.61366 16.2537 9.83522C16.0322 10.0568 15.7317 10.1812 15.4183 10.1812ZM17.7812 14.3162H11.7902C11.6613 13.8096 11.3672 13.3604 10.9545 13.0396C10.5418 12.7188 10.034 12.5446 9.51126 12.5446C8.98853 12.5446 8.48069 12.7188 8.06799 13.0396C7.65529 13.3604 7.36124 13.8096 7.23231 14.3162H1.24134C1.08468 14.3162 0.934428 14.3784 0.823649 14.4892C0.71287 14.6 0.650635 14.7502 0.650635 14.9069C0.650635 15.0636 0.71287 15.2138 0.823649 15.3246C0.934428 15.4354 1.08468 15.4976 1.24134 15.4976H7.23231C7.36124 16.0042 7.65529 16.4534 8.06799 16.7742C8.48069 17.095 8.98853 17.2692 9.51126 17.2692C10.034 17.2692 10.5418 17.095 10.9545 16.7742C11.3672 16.4534 11.6613 16.0042 11.7902 15.4976H17.7812C17.9378 15.4976 18.0881 15.4354 18.1989 15.3246C18.3096 15.2138 18.3719 15.0636 18.3719 14.9069C18.3719 14.7502 18.3096 14.6 18.1989 14.4892C18.0881 14.3784 17.9378 14.3162 17.7812 14.3162ZM9.51126 16.0883C9.2776 16.0883 9.04918 16.019 8.8549 15.8892C8.66062 15.7594 8.50919 15.5749 8.41977 15.359C8.33035 15.1431 8.30696 14.9056 8.35254 14.6764C8.39813 14.4473 8.51065 14.2368 8.67587 14.0715C8.8411 13.9063 9.0516 13.7938 9.28078 13.7482C9.50995 13.7026 9.74749 13.726 9.96337 13.8154C10.1792 13.9048 10.3638 14.0563 10.4936 14.2506C10.6234 14.4448 10.6927 14.6733 10.6927 14.9069C10.6927 15.2202 10.5682 15.5207 10.3466 15.7423C10.1251 15.9639 9.82459 16.0883 9.51126 16.0883Z" fill="#222222"/>
</svg>
