<svg width="21" height="21" viewBox="0 0 21 21" fill="none" xmlns="http://www.w3.org/2000/svg">
<g clip-path="url(#clip0_341_7275)">
<circle cx="10.0093" cy="10.8535" r="10" fill="#D9D9D9"/>
<path d="M7.12573 19.5877C7.41013 19.4653 7.60933 19.1825 7.60933 18.8533V16.6933C7.60933 16.6145 7.61573 16.5325 7.62573 16.4493C7.62013 16.4509 7.61493 16.4521 7.60933 16.4533C7.60933 16.4533 6.40933 16.4533 6.16933 16.4533C5.56933 16.4533 5.04933 16.2133 4.80933 15.7333C4.52933 15.2133 4.40933 14.3333 3.68933 13.8533C3.56933 13.7733 3.64933 13.6533 3.88933 13.6533C4.12933 13.6933 4.64933 14.0133 4.96933 14.4533C5.32933 14.8933 5.68933 15.2533 6.32933 15.2533C7.32413 15.2533 7.85733 15.2033 8.17813 15.0313C8.55173 14.4757 9.06893 14.0533 9.60933 14.0533V14.0433C7.34213 13.9705 5.89373 13.2169 5.21933 12.0533C3.75333 12.0701 2.47693 12.2153 1.74853 12.3361C1.72533 12.2053 1.70533 12.0737 1.68813 11.9413C2.40693 11.8229 3.62533 11.6825 5.02613 11.6557C4.98133 11.5453 4.94253 11.4321 4.90973 11.3161C3.50533 11.2449 2.29333 11.3005 1.63493 11.3549C1.62693 11.2221 1.61613 11.0897 1.61453 10.9553C2.27413 10.9013 3.45333 10.8473 4.82173 10.9109C4.79013 10.7109 4.76973 10.5065 4.76973 10.2937C4.76973 9.61372 5.00973 8.89372 5.44973 8.29372C5.24973 7.61372 4.96973 6.17372 5.52973 5.65372C6.60973 5.65372 7.36973 6.17372 7.72973 6.49372C8.40933 6.21332 9.16933 6.05332 10.0093 6.05332C10.8493 6.05332 11.6093 6.21332 12.2493 6.49332C12.6093 6.17332 13.3693 5.65332 14.4493 5.65332C15.0493 6.21332 14.7293 7.65332 14.5293 8.29332C14.9693 8.89332 15.2093 9.57332 15.1693 10.2933C15.1693 10.4869 15.1513 10.6737 15.1253 10.8569C16.5249 10.7881 17.7361 10.8433 18.4069 10.8977C18.4061 11.0325 18.3937 11.1641 18.3865 11.2973C17.7181 11.2421 16.4765 11.1853 15.0429 11.2617C15.0073 11.3961 14.9641 11.5269 14.9129 11.6537C16.3313 11.6721 17.5789 11.8093 18.3321 11.9293C18.3149 12.0621 18.2949 12.1937 18.2717 12.3241C17.5069 12.2017 16.2033 12.0585 14.7201 12.0513C14.0541 13.2025 12.6321 13.9533 10.4093 14.0409V14.0533C11.4493 14.0533 12.4093 15.6133 12.4093 16.6933V18.8533C12.4093 19.1825 12.6085 19.4653 12.8929 19.5877C16.5573 18.3749 19.2093 14.9189 19.2093 10.8533C19.2093 5.78052 15.0825 1.65332 10.0093 1.65332C4.93613 1.65332 0.809326 5.78052 0.809326 10.8533C0.809326 14.9189 3.46133 18.3749 7.12573 19.5877Z" fill="black"/>
</g>
<defs>
<clipPath id="clip0_341_7275">
<rect width="20" height="20" fill="white" transform="translate(0.00927734 0.853516)"/>
</clipPath>
</defs>
</svg>
