<svg width="22" height="23" viewBox="0 0 22 23" fill="none" xmlns="http://www.w3.org/2000/svg">
<path d="M11.001 0.170044C8.01361 0.170044 7.63862 0.183134 6.46536 0.236483C5.2943 0.290163 4.49493 0.475511 3.79555 0.747538C3.07197 1.02848 2.45828 1.40434 1.8469 2.01594C1.23497 2.62742 0.8591 3.2411 0.57728 3.96435C0.30448 4.66394 0.11891 5.46363 0.0662199 6.63413C0.0137499 7.80749 0 8.18258 0 11.17C0 14.1575 0.0132 14.5313 0.06644 15.7045C0.12034 16.8756 0.30569 17.6749 0.5775 18.3743C0.85866 19.0979 1.23453 19.7116 1.84613 20.3229C2.4574 20.9349 3.07109 21.3116 3.79412 21.5926C4.49405 21.8646 5.29353 22.0499 6.46437 22.1036C7.63774 22.157 8.0124 22.17 10.9997 22.17C13.9874 22.17 14.3612 22.157 15.5344 22.1036C16.7055 22.0499 17.5057 21.8646 18.2057 21.5926C18.9289 21.3116 19.5417 20.9349 20.1529 20.3229C20.7648 19.7116 21.1406 19.0979 21.4225 18.3746C21.6929 17.6749 21.8786 16.8754 21.9336 15.7047C21.9862 14.5315 22 14.1575 22 11.17C22 8.18258 21.9862 7.80771 21.9336 6.63435C21.8786 5.4633 21.6929 4.66405 21.4225 3.96468C21.1406 3.2411 20.7648 2.62742 20.1529 2.01594C19.5411 1.40412 18.9291 1.02826 18.205 0.747648C17.5037 0.475511 16.7039 0.290053 15.5329 0.236483C14.3595 0.183134 13.9859 0.170044 10.9976 0.170044H11.001ZM10.0142 2.15233C10.3071 2.15189 10.6339 2.15233 11.001 2.15233C13.9381 2.15233 14.2861 2.16289 15.446 2.21558C16.5185 2.26464 17.1006 2.44383 17.4883 2.59442C18.0017 2.79374 18.3677 3.03211 18.7525 3.41721C19.1375 3.80221 19.3757 4.16883 19.5756 4.6822C19.7262 5.06939 19.9056 5.65151 19.9544 6.724C20.0071 7.88361 20.0186 8.23186 20.0186 11.1675C20.0186 14.1032 20.0071 14.4515 19.9544 15.611C19.9054 16.6835 19.7262 17.2656 19.5756 17.6529C19.3763 18.1663 19.1375 18.5318 18.7525 18.9166C18.3675 19.3016 18.0019 19.5399 17.4883 19.7393C17.101 19.8905 16.5185 20.0693 15.446 20.1183C14.2864 20.171 13.9381 20.1825 11.001 20.1825C8.06377 20.1825 7.71562 20.171 6.55611 20.1183C5.48361 20.0688 4.90149 19.8897 4.51341 19.7391C4.00015 19.5396 3.63341 19.3014 3.24841 18.9164C2.86341 18.5314 2.62515 18.1656 2.42528 17.6521C2.27469 17.2648 2.09528 16.6826 2.04644 15.6101C1.99375 14.4505 1.98319 14.1023 1.98319 11.1648C1.98319 8.22735 1.99375 7.88086 2.04644 6.72125C2.0955 5.64876 2.27469 5.06665 2.42528 4.6789C2.62471 4.16553 2.86341 3.79891 3.24852 3.41391C3.63352 3.02892 4.00015 2.79055 4.51352 2.59079C4.90127 2.43954 5.48361 2.26079 6.55611 2.21151C7.57086 2.16564 7.96411 2.15189 10.0142 2.14958V2.15233ZM16.8728 3.97876C16.144 3.97876 15.5528 4.56945 15.5528 5.2983C15.5528 6.02705 16.144 6.61829 16.8728 6.61829C17.6015 6.61829 18.1928 6.02705 18.1928 5.2983C18.1928 4.56956 17.6015 3.97832 16.8728 3.97832V3.97876ZM11.001 5.52105C7.88139 5.52105 5.35205 8.05037 5.35205 11.17C5.35205 14.2897 7.88139 16.8178 11.001 16.8178C14.1207 16.8178 16.6492 14.2897 16.6492 11.17C16.6492 8.05048 14.1205 5.52105 11.0008 5.52105H11.001ZM11.001 7.50334C13.026 7.50334 14.6677 9.14486 14.6677 11.17C14.6677 13.195 13.026 14.8367 11.001 14.8367C8.97589 14.8367 7.33436 13.195 7.33436 11.17C7.33436 9.14486 8.97589 7.50334 11.001 7.50334Z" fill="white"/>
</svg>
