<svg width="110" height="39" viewBox="0 0 110 39" fill="none" xmlns="http://www.w3.org/2000/svg">
<path d="M0.000976562 2.15222C0.000976562 1.04765 0.896407 0.152222 2.00098 0.152222H36.001C37.1055 0.152222 38.001 1.04765 38.001 2.15222V36.1522C38.001 37.2568 37.1055 38.1522 36.001 38.1522H2.00098C0.896406 38.1522 0.000976562 37.2568 0.000976562 36.1522V2.15222Z" fill="url(#paint0_linear_649_3190)"/>
<path d="M23.0318 28.6385H21.9666L14.8836 10.2669L7.78679 28.6385H6.7354L14.4271 8.7037H15.3401L23.0318 28.6385Z" fill="white"/>
<path d="M27.8721 8.7037H28.8405V28.6385H27.8721V8.7037Z" fill="white"/>
<path d="M57.3055 27.1635V28.0529H43.7556V27.1635L56.1197 10.254H57.2437L44.8796 27.1635H57.3055Z" fill="#F1F1F1"/>
<path d="M70.2606 10.1181C71.9322 10.1428 73.4144 10.5586 74.7072 11.3656C76 12.1726 77.0211 13.2637 77.7704 14.6388C78.5198 16.0058 78.8944 17.525 78.8944 19.1966C78.8944 20.86 78.5198 22.3793 77.7704 23.7544C77.0211 25.1214 75.9959 26.2124 74.6948 27.0277C73.3938 27.8429 71.9116 28.2505 70.2482 28.2505C68.5931 28.2505 67.115 27.8429 65.8139 27.0277C64.5211 26.2124 63.5 25.1214 62.7507 23.7544C62.0013 22.3793 61.6267 20.86 61.6267 19.1966C61.6267 19.1966 61.6267 19.1925 61.6267 19.1843C61.6267 19.1843 61.6267 19.1802 61.6267 19.1719H62.5901C62.5901 19.1802 62.5901 19.1843 62.5901 19.1843C62.5901 19.1925 62.5901 19.1966 62.5901 19.1966C62.5901 20.6953 62.9154 22.0664 63.5659 23.3098C64.2246 24.545 65.1304 25.5331 66.2833 26.2742C67.4361 27.0153 68.7578 27.3859 70.2482 27.3859C71.7469 27.3859 73.0726 27.0153 74.2255 26.2742C75.3865 25.5331 76.2923 24.545 76.9429 23.3098C77.6016 22.0664 77.931 20.6953 77.931 19.1966C77.931 17.6897 77.6016 16.3187 76.9429 15.0835C76.2923 13.8401 75.3907 12.8561 74.2378 12.1314C73.0932 11.4068 71.7675 11.0321 70.2606 11.0074V10.1181Z" fill="#F1F1F1"/>
<path d="M83.4063 10.0687L96.7586 27.04V28.2258H96.5363L84.098 12.4032V28.0529H83.2087V10.0687H83.4063Z" fill="#F1F1F1"/>
<path d="M109.404 11.3162H97.7312V10.4269H109.404V11.3162ZM109.404 19.7648H97.7312V18.8755H109.404V19.7648ZM109.404 28.2258H97.7312V27.3365H109.404V28.2258Z" fill="#F1F1F1"/>
<line x1="97.25" y1="28.2247" x2="97.25" y2="10.4247" stroke="#F1F1F1"/>
<line x1="43.6639" y1="9.85176" x2="57.2684" y2="9.75457" stroke="#F1F1F1"/>
<defs>
<linearGradient id="paint0_linear_649_3190" x1="1.59097" y1="6.17724" x2="38.7631" y2="30.8906" gradientUnits="userSpaceOnUse">
<stop offset="0.307625" stop-color="#3B89B6"/>
<stop offset="1" stop-color="#B81D55"/>
</linearGradient>
</defs>
</svg>
