<svg width="133" height="39" viewBox="0 0 133 39" fill="none" xmlns="http://www.w3.org/2000/svg">
<path d="M0.0834961 2.05151C0.0834961 0.946943 0.978927 0.0515137 2.0835 0.0515137H36.0835C37.1881 0.0515137 38.0835 0.946944 38.0835 2.05151V36.0515C38.0835 37.1561 37.1881 38.0515 36.0835 38.0515H2.0835C0.978926 38.0515 0.0834961 37.1561 0.0834961 36.0515V2.05151Z" fill="url(#paint0_linear_61_9977)"/>
<path d="M23.1144 28.5378H22.0491L14.9661 10.1662L7.8693 28.5378H6.81792L14.5096 8.603H15.4227L23.1144 28.5378Z" fill="#F8F8F8"/>
<path d="M27.9546 8.603H28.923V28.5378H27.9546V8.603Z" fill="#F8F8F8"/>
<path d="M57.388 27.0628V27.9522H43.8381V27.0628L56.2022 10.1532H57.3262L44.9621 27.0628H57.388Z" fill="#F1F1F1"/>
<path d="M70.3431 10.0174C72.0147 10.0421 73.4969 10.4579 74.7897 11.2649C76.0825 12.0719 77.1036 13.163 77.853 14.5381C78.6023 15.9051 78.977 17.4243 78.977 19.0959C78.977 20.7593 78.6023 22.2786 77.853 23.6537C77.1036 25.0207 76.0784 26.1117 74.7774 26.927C73.4763 27.7422 71.9941 28.1498 70.3307 28.1498C68.6756 28.1498 67.1975 27.7422 65.8964 26.927C64.6036 26.1117 63.5825 25.0207 62.8332 23.6537C62.0838 22.2786 61.7092 20.7593 61.7092 19.0959C61.7092 19.0959 61.7092 19.0918 61.7092 19.0836C61.7092 19.0836 61.7092 19.0795 61.7092 19.0712H62.6726C62.6726 19.0795 62.6726 19.0836 62.6726 19.0836C62.6726 19.0918 62.6726 19.0959 62.6726 19.0959C62.6726 20.5946 62.9979 21.9657 63.6484 23.2091C64.3072 24.4443 65.213 25.4324 66.3658 26.1735C67.5186 26.9146 68.8403 27.2852 70.3307 27.2852C71.8294 27.2852 73.1552 26.9146 74.308 26.1735C75.4691 25.4324 76.3749 24.4443 77.0254 23.2091C77.6841 21.9657 78.0135 20.5946 78.0135 19.0959C78.0135 17.589 77.6841 16.218 77.0254 14.9828C76.3749 13.7394 75.4732 12.7554 74.3203 12.0307C73.1757 11.3061 71.85 10.9314 70.3431 10.9067V10.0174Z" fill="#F1F1F1"/>
<path d="M83.4888 9.96797L96.8411 26.9393V28.1251H96.6188L84.1805 12.3025V27.9522H83.2912V9.96797H83.4888Z" fill="#F1F1F1"/>
<path d="M109.486 11.2155H97.8138V10.3262H109.486V11.2155ZM109.486 19.6641H97.8138V18.7748H109.486V19.6641ZM109.486 28.1251H97.8138V27.2358H109.486V28.1251Z" fill="#F1F1F1"/>
<line x1="97.3325" y1="28.124" x2="97.3325" y2="10.324" stroke="#F1F1F1"/>
<line x1="43.7464" y1="9.75099" x2="57.3509" y2="9.6538" stroke="#F1F1F1"/>
<path d="M118.119 18.5361C119.181 19.3875 120.02 20.1587 120.635 20.8498C121.251 21.5408 121.682 22.1705 121.929 22.7387C122.176 23.307 122.279 23.8384 122.238 24.3329C122.204 24.8311 122.071 25.3188 121.838 25.796C121.621 26.2425 121.29 26.6861 120.846 27.1271C120.414 27.5641 119.862 27.9143 119.19 28.1774C118.523 28.4329 117.736 28.5306 116.832 28.4705C115.931 28.4027 114.907 28.0891 113.761 27.5297C113.73 27.5146 113.703 27.5015 113.68 27.4902L114.074 26.6821L114.097 26.6646C114.12 26.6759 114.143 26.6871 114.166 26.6984C114.797 27.0063 115.449 27.2335 116.12 27.3802C116.792 27.5268 117.436 27.5646 118.052 27.4934C118.679 27.4183 119.246 27.2136 119.752 26.8793C120.27 26.541 120.688 26.0448 121.007 25.3905C121.285 24.8209 121.377 24.2704 121.284 23.739C121.191 23.2075 120.962 22.6908 120.597 22.1888C120.236 21.6791 119.786 21.1836 119.249 20.7025C118.716 20.2136 118.142 19.729 117.529 19.2486C115.796 17.9173 114.608 16.6803 113.965 15.5376C113.322 14.3949 113.271 13.2693 113.811 12.161C114.254 11.2527 114.878 10.5706 115.681 10.1147C116.493 9.66243 117.398 9.44675 118.398 9.4676C119.41 9.48452 120.427 9.74267 121.451 10.2421C121.628 10.3284 121.797 10.4206 121.959 10.5186L121.559 11.3383C121.394 11.248 121.222 11.1597 121.045 11.0733C119.691 10.4125 118.415 10.2143 117.219 10.4788C116.03 10.747 115.164 11.4392 114.619 12.5552C114.353 13.1017 114.27 13.633 114.371 14.1491C114.483 14.6612 114.72 15.1625 115.081 15.6531C115.445 16.1359 115.892 16.6161 116.422 17.0935C116.959 17.5746 117.525 18.0555 118.119 18.5361Z" fill="white"/>
<defs>
<linearGradient id="paint0_linear_61_9977" x1="1.67349" y1="6.07653" x2="38.8456" y2="30.7899" gradientUnits="userSpaceOnUse">
<stop offset="0.307625" stop-color="#3B89B6"/>
<stop offset="1" stop-color="#B81D55"/>
</linearGradient>
</defs>
</svg>
