<svg width="12" height="21" viewBox="0 0 12 21" fill="none" xmlns="http://www.w3.org/2000/svg">
<g clip-path="url(#clip0_341_7292)">
<path fill-rule="evenodd" clip-rule="evenodd" d="M2.17887 0.853516H9.28662C9.86179 0.854804 10.4131 1.08375 10.8199 1.4903C11.2268 1.89685 11.4561 2.44795 11.4578 3.02311V18.6839C11.4561 19.2591 11.2268 19.8102 10.8199 20.2167C10.4131 20.6233 9.86179 20.8522 9.28662 20.8535H2.17887C1.60344 20.8527 1.05185 20.6236 0.645114 20.2165C0.238376 19.8095 0.00970773 19.2577 0.00927734 18.6823L0.00927734 3.02311C0.0101383 2.44796 0.238997 1.89662 0.645688 1.48993C1.05238 1.08323 1.60373 0.854377 2.17887 0.853516ZM5.73193 18.4919C5.90777 18.4915 6.07974 18.5434 6.2261 18.6408C6.37245 18.7383 6.48661 18.877 6.55412 19.0393C6.62163 19.2017 6.63946 19.3804 6.60536 19.5529C6.57125 19.7254 6.48674 19.8839 6.36252 20.0083C6.23831 20.1328 6.07996 20.2176 5.90753 20.252C5.7351 20.2864 5.55634 20.2689 5.39386 20.2017C5.23138 20.1345 5.09249 20.0206 4.99477 19.8744C4.89705 19.7282 4.84489 19.5564 4.84489 19.3805C4.84532 19.1453 4.93886 18.9197 5.10507 18.7532C5.27129 18.5867 5.49666 18.4927 5.73193 18.4919ZM10.8328 17.8099V3.57975H0.63265V17.8099H10.8328Z" fill="black"/>
</g>
<defs>
<clipPath id="clip0_341_7292">
<rect width="11.4486" height="20" fill="white" transform="translate(0.00927734 0.853516)"/>
</clipPath>
</defs>
</svg>
