<svg width="16" height="17" viewBox="0 0 16 17" fill="none" xmlns="http://www.w3.org/2000/svg">
<g clip-path="url(#clip0_341_7279)">
<path fill-rule="evenodd" clip-rule="evenodd" d="M4.17603 10.931C4.17603 9.9989 4.83677 9.24854 5.65751 9.24854C6.47825 9.24854 7.13899 9.9989 7.13899 10.931V15.0723C7.13899 16.0043 6.47825 16.7547 5.65751 16.7547C4.83677 16.7547 4.17603 16.0043 4.17603 15.0723V10.931Z" fill="#E01E5A" stroke="#E01E5A" stroke-width="0.790123" stroke-linecap="round" stroke-linejoin="round"/>
<path fill-rule="evenodd" clip-rule="evenodd" d="M9.4569 12.409C8.5831 12.409 7.87964 11.7042 7.87964 10.8288C7.87964 9.95333 8.5831 9.24854 9.4569 9.24854H13.3394C14.2132 9.24854 14.9167 9.95333 14.9167 10.8288C14.9167 11.7042 14.2132 12.409 13.3394 12.409H9.4569Z" fill="#ECB22D" stroke="#ECB22D" stroke-width="0.790123" stroke-linecap="round" stroke-linejoin="round"/>
<path fill-rule="evenodd" clip-rule="evenodd" d="M7.87964 2.63456C7.87964 1.70251 8.54038 0.952148 9.36112 0.952148C10.1819 0.952148 10.8426 1.70251 10.8426 2.63456V6.77589C10.8426 7.70796 10.1819 8.45832 9.36112 8.45832C8.54038 8.45832 7.87964 7.70796 7.87964 6.77589V2.63456Z" fill="#2FB67C" stroke="#2FB67C" stroke-width="0.790123" stroke-linecap="round" stroke-linejoin="round"/>
<path fill-rule="evenodd" clip-rule="evenodd" d="M1.67907 8.45834C0.805269 8.45834 0.101807 7.75355 0.101807 6.8781C0.101807 6.00264 0.805269 5.29785 1.67907 5.29785H5.56156C6.43538 5.29785 7.13884 6.00264 7.13884 6.8781C7.13884 7.75355 6.43538 8.45834 5.56156 8.45834H1.67907Z" fill="#36C5F1" stroke="#36C5F1" stroke-width="0.790123" stroke-linecap="round" stroke-linejoin="round"/>
<path fill-rule="evenodd" clip-rule="evenodd" d="M7.87964 15.1745C7.87923 15.3821 7.91726 15.5878 7.99157 15.7797C8.06587 15.9717 8.17498 16.1461 8.31263 16.2929C8.45028 16.4397 8.61377 16.5561 8.79369 16.6353C8.97362 16.7146 9.16646 16.7552 9.36112 16.7547C10.1819 16.7547 10.8426 16.0499 10.8426 15.1745C10.843 14.9668 10.805 14.7612 10.7307 14.5692C10.6564 14.3773 10.5473 14.2029 10.4096 14.0561C10.272 13.9093 10.1085 13.7929 9.92855 13.7136C9.74862 13.6344 9.55579 13.5938 9.36112 13.5942H7.87964V15.1745Z" fill="#ECB22D" stroke="#ECB22D" stroke-width="0.790123" stroke-linecap="round"/>
<path fill-rule="evenodd" clip-rule="evenodd" d="M13.4351 8.45834H11.9536V6.8781C11.9536 6.00264 12.6144 5.29785 13.4351 5.29785C14.2558 5.29785 14.9166 6.00264 14.9166 6.8781C14.9166 7.75355 14.2558 8.45834 13.4351 8.45834Z" fill="#2FB67C" stroke="#2FB67C" stroke-width="0.790123" stroke-linecap="round"/>
<path fill-rule="evenodd" clip-rule="evenodd" d="M1.58329 9.24854H3.06477V10.8288C3.06477 11.7042 2.40403 12.409 1.58329 12.409C1.38862 12.4095 1.19579 12.3689 1.01586 12.2896C0.835933 12.2104 0.672451 12.094 0.5348 11.9472C0.397149 11.8003 0.28804 11.626 0.213736 11.434C0.139431 11.2421 0.101395 11.0364 0.10181 10.8288C0.10181 9.95333 0.762551 9.24854 1.58329 9.24854Z" fill="#E01E5A" stroke="#E01E5A" stroke-width="0.790123" stroke-linecap="round"/>
<path fill-rule="evenodd" clip-rule="evenodd" d="M7.13875 2.5324V4.11265H5.65727C5.4626 4.11309 5.26977 4.07252 5.08984 3.99326C4.90991 3.914 4.74643 3.79762 4.60877 3.65079C4.47112 3.50396 4.36201 3.32958 4.28771 3.13766C4.21341 2.94573 4.17537 2.74004 4.17578 2.5324C4.17578 1.65694 4.83653 0.952152 5.65727 0.952152C5.85193 0.951709 6.04477 0.992282 6.22469 1.07154C6.40462 1.1508 6.56811 1.26718 6.70576 1.41401C6.84341 1.56084 6.95252 1.73522 7.02682 1.92714C7.10113 2.11907 7.13916 2.32475 7.13875 2.5324Z" fill="#36C5F1" stroke="#36C5F1" stroke-width="0.790123" stroke-linecap="round"/>
</g>
<defs>
<clipPath id="clip0_341_7279">
<rect width="15" height="16" fill="white" transform="translate(0.00927734 0.853516)"/>
</clipPath>
</defs>
</svg>
