<svg width="19" height="21" viewBox="0 0 19 21" fill="none" xmlns="http://www.w3.org/2000/svg">
<path d="M16.2902 4.63338C16.2739 4.53544 16.1865 4.48064 16.1157 4.46976C16.045 4.46431 14.5129 4.34966 14.5129 4.34966C14.5129 4.34966 13.45 3.2976 13.3353 3.1775C13.2207 3.06285 12.9918 3.09589 12.9047 3.12309C12.8938 3.12853 12.6704 3.19383 12.3105 3.30848C11.956 2.28906 11.3291 1.35125 10.2281 1.35125C10.1955 1.35125 10.1683 1.35125 10.1356 1.35669C9.82469 0.942395 9.43216 0.762451 9.09987 0.762451C6.53208 0.762451 5.30551 3.96801 4.92385 5.60344C3.9262 5.91436 3.2173 6.13239 3.13025 6.15959C2.57409 6.3341 2.55777 6.35042 2.4816 6.87393C2.42719 7.2719 0.971313 18.5353 0.971313 18.5353L12.3218 20.6616L18.4713 19.3312C18.4655 19.3258 16.3065 4.7317 16.2902 4.63338ZM11.6836 3.49969C11.4003 3.58675 11.073 3.69052 10.724 3.79973C10.724 3.73444 10.724 3.66331 10.724 3.59258C10.724 2.96025 10.637 2.44762 10.4951 2.04421C11.0621 2.11494 11.4384 2.75815 11.6836 3.49969ZM9.79166 2.16935C9.94984 2.56733 10.0532 3.13436 10.0532 3.89767C10.0532 3.93576 10.0532 3.97384 10.0532 4.00688C9.42633 4.1977 8.75008 4.41029 8.06879 4.62288C8.45083 3.14525 9.16477 2.43635 9.79166 2.16935ZM9.02874 1.44414C9.13795 1.44414 9.25222 1.48223 9.35599 1.55335C8.53283 1.94044 7.64944 2.91633 7.27906 4.86268C6.73378 5.03174 6.20522 5.19536 5.70892 5.34771C6.15004 3.86502 7.18578 1.44414 9.02874 1.44414Z" fill="#95BF46"/>
<path d="M16.1157 4.47011C16.045 4.46467 14.5129 4.35002 14.5129 4.35002C14.5129 4.35002 13.45 3.29795 13.3353 3.17786C13.2918 3.13433 13.2316 3.11257 13.1717 3.10168L12.3159 20.6507L18.4655 19.3203C18.4655 19.3203 16.3065 4.72623 16.2957 4.6279C16.2793 4.52996 16.1923 4.47555 16.1157 4.47011Z" fill="#5E8E3E"/>
<path d="M10.2281 7.86649L9.47024 10.1234C9.47024 10.1234 8.80526 9.76892 7.99299 9.76892C6.79907 9.76892 6.73922 10.5159 6.73922 10.7067C6.73922 11.737 9.4271 12.1296 9.4271 14.5446C9.4271 16.442 8.22229 17.6631 6.59775 17.6631C4.6514 17.6631 3.65375 16.4529 3.65375 16.4529L4.17726 14.73C4.17726 14.73 5.20212 15.6076 6.06336 15.6076C6.6304 15.6076 6.85931 15.1606 6.85931 14.8388C6.85931 13.4976 4.65685 13.4378 4.65685 11.2298C4.65685 9.37095 5.99263 7.5719 8.68556 7.5719C9.71548 7.5719 10.2281 7.86649 10.2281 7.86649Z" fill="white"/>
</svg>
