<svg width="16" height="21" viewBox="0 0 16 21" fill="none" xmlns="http://www.w3.org/2000/svg">
<path d="M9.79309 0.271973H1.82428C1.05061 0.271973 0.417969 0.908639 0.417969 1.68191V19.4965C0.417969 20.2702 1.05061 20.9028 1.82428 20.9028H14.0108C14.7845 20.9028 15.4171 20.2702 15.4171 19.4965V5.90003L12.1338 3.55564L9.79309 0.271973Z" fill="#0F9D58"/>
<path d="M4.16895 10.3516V17.1518H11.6703V10.3516H4.16895ZM7.44859 16.2133H5.1042V15.0411H7.44859V16.2133ZM7.44859 14.336H5.1042V13.1638H7.44859V14.336ZM7.44859 12.4626H5.1042V11.2904H7.44859V12.4626ZM10.7319 16.2133H8.38706V15.0411H10.7314V16.2133H10.7319ZM10.7319 14.336H8.38706V13.1638H10.7314V14.336H10.7319ZM10.7319 12.4626H8.38706V11.2904H10.7314V12.4626H10.7319Z" fill="#F1F1F1"/>
<path d="M9.79395 0.273926V4.49204C9.79395 5.26934 10.4226 5.89835 11.2003 5.89835H15.418L9.79395 0.273926Z" fill="#87CEAC"/>
</svg>
