<svg width="105" height="17" viewBox="0 0 105 17" fill="none" xmlns="http://www.w3.org/2000/svg">
<path d="M8.56894 2.4633L8.11633 1.49921L7.66373 2.4633L5.92261 6.17201L2.04086 6.7647L1.07876 6.9116L1.75848 7.60817L4.58224 10.502L3.91485 14.5953L3.74915 15.6116L4.65028 15.1133L8.11633 13.1968L11.5824 15.1133L12.4835 15.6116L12.3178 14.5953L11.6504 10.502L14.4742 7.60817L15.1539 6.9116L14.1918 6.7647L10.3101 6.17201L8.56894 2.4633Z" fill="#444444" stroke="#444444"/>
<path d="M30.5689 2.4633L30.1163 1.49921L29.6637 2.4633L27.9226 6.17201L24.0409 6.7647L23.0788 6.9116L23.7585 7.60817L26.5822 10.502L25.9148 14.5953L25.7492 15.6116L26.6503 15.1133L30.1163 13.1968L33.5824 15.1133L34.4835 15.6116L34.3178 14.5953L33.6504 10.502L36.4742 7.60817L37.1539 6.9116L36.1918 6.7647L32.3101 6.17201L30.5689 2.4633Z" fill="#444444" stroke="#444444"/>
<path d="M52.5689 2.4633L52.1163 1.49921L51.6637 2.4633L49.9226 6.17201L46.0409 6.7647L45.0788 6.9116L45.7585 7.60817L48.5822 10.502L47.9148 14.5953L47.7492 15.6116L48.6503 15.1133L52.1163 13.1968L55.5824 15.1133L56.4835 15.6116L56.3178 14.5953L55.6504 10.502L58.4742 7.60817L59.1539 6.9116L58.1918 6.7647L54.3101 6.17201L52.5689 2.4633Z" fill="#444444" stroke="#444444"/>
<path d="M74.5689 2.4633L74.1163 1.49921L73.6637 2.4633L71.9226 6.17201L68.0409 6.7647L67.0788 6.9116L67.7585 7.60817L70.5822 10.502L69.9148 14.5953L69.7492 15.6116L70.6503 15.1133L74.1163 13.1968L77.5824 15.1133L78.4835 15.6116L78.3178 14.5953L77.6504 10.502L80.4742 7.60817L81.1539 6.9116L80.1918 6.7647L76.3101 6.17201L74.5689 2.4633Z" fill="white" stroke="#444444"/>
<path d="M96.5689 2.4633L96.1163 1.49921L95.6637 2.4633L93.9226 6.17201L90.0409 6.7647L89.0788 6.9116L89.7585 7.60817L92.5822 10.502L91.9148 14.5953L91.7492 15.6116L92.6503 15.1133L96.1163 13.1968L99.5824 15.1133L100.484 15.6116L100.318 14.5953L99.6504 10.502L102.474 7.60817L103.154 6.9116L102.192 6.7647L98.3101 6.17201L96.5689 2.4633Z" fill="white" stroke="#444444"/>
</svg>
