<svg width="20" height="17" viewBox="0 0 20 17" fill="none" xmlns="http://www.w3.org/2000/svg">
<path d="M17.842 4.17814C17.854 4.3513 17.854 4.52445 17.854 4.69923C17.854 10.0233 13.8009 16.1635 6.3897 16.1635V16.1602C4.2003 16.1634 2.05625 15.5364 0.213562 14.354C0.531932 14.3923 0.85183 14.4114 1.1726 14.4121C2.98721 14.4136 4.74961 13.8049 6.17662 12.684C5.33585 12.6681 4.52106 12.3899 3.84617 11.8882C3.17128 11.3865 2.67002 10.6865 2.41248 9.886C3.01613 10.0024 3.63845 9.97866 4.23148 9.81661C2.35181 9.43682 0.99945 7.78528 0.99945 5.86721V5.81615C1.55981 6.12826 2.18693 6.3012 2.82806 6.32043C1.05771 5.13718 0.511966 2.78192 1.58098 0.940436C2.59253 2.18522 3.85463 3.20329 5.28528 3.92851C6.71593 4.65374 8.28315 5.06989 9.88512 5.14995C9.7254 4.46241 9.74899 3.74498 9.95353 3.06942C10.1581 2.39386 10.5364 1.78384 11.0507 1.30038C12.6735 -0.225139 15.2258 -0.146911 16.7514 1.47505C17.6537 1.29691 18.519 0.966118 19.31 0.496922C19.0092 1.42984 18.3798 2.22174 17.5388 2.72529C18.3375 2.63119 19.1175 2.41739 19.8526 2.09106C19.3118 2.90084 18.631 3.60754 17.842 4.17814Z" fill="white"/>
</svg>
