<svg width="17" height="18" viewBox="0 0 17 18" fill="none" xmlns="http://www.w3.org/2000/svg">
<path d="M12.5766 0.957266C12.6549 0.995599 14.9466 2.08893 16.0657 2.6231C16.4353 2.79935 16.6699 3.17185 16.6699 3.58102V14.7727C16.6699 15.1814 16.437 15.5535 16.0687 15.7306C15.007 16.2423 12.8974 17.2581 12.757 17.3248C12.6537 17.3739 12.382 17.5202 12.162 17.5202C11.8795 17.5202 11.6899 17.3885 11.5037 17.216L12.5032 14.0664V1.5681L11.5641 1.09518C11.7649 0.898932 12.0432 0.853516 12.2078 0.853516C12.3587 0.853516 12.4816 0.911016 12.5766 0.957266Z" fill="url(#paint0_linear_341_7270)"/>
<path d="M2.08668 13.3103L12.5033 5.38404V1.61612C12.5033 1.07487 11.8108 0.862792 11.5296 1.12279C11.2567 1.37446 0.277511 11.3699 0.277511 11.3699C-0.0974891 11.7157 -0.0762391 12.3145 0.322094 12.6332C0.322094 12.6332 0.873761 13.1465 1.07334 13.289C1.38001 13.5078 1.78293 13.5328 2.08668 13.3103Z" fill="url(#paint1_linear_341_7270)"/>
<path d="M2.08668 5.0635L12.5033 13.0027V16.6573C12.5033 17.1564 11.9117 17.571 11.5038 17.216L0.277511 7.00392C-0.0974891 6.65808 -0.0762391 6.05933 0.322094 5.74058C0.322094 5.74058 0.873761 5.22725 1.07334 5.08475C1.38001 4.866 1.78293 4.841 2.08668 5.0635Z" fill="#0288D1"/>
<defs>
<linearGradient id="paint0_linear_341_7270" x1="14.0866" y1="17.2577" x2="14.0866" y2="2.27852" gradientUnits="userSpaceOnUse">
<stop stop-color="#29B6F6"/>
<stop offset="1" stop-color="#13B2F6"/>
</linearGradient>
<linearGradient id="paint1_linear_341_7270" x1="0.872094" y1="13.6874" x2="12.8338" y2="2.17571" gradientUnits="userSpaceOnUse">
<stop offset="0.115" stop-color="#0076BB"/>
<stop offset="0.257" stop-color="#0069B0"/>
<stop offset="0.28" stop-color="#0069B0"/>
<stop offset="0.424" stop-color="#0069B0"/>
<stop offset="0.491" stop-color="#0072B7"/>
<stop offset="0.577" stop-color="#0076BB"/>
<stop offset="0.795" stop-color="#0076BB"/>
<stop offset="1" stop-color="#006EB9"/>
</linearGradient>
</defs>
</svg>
