<svg width="16" height="17" viewBox="0 0 16 17" fill="none" xmlns="http://www.w3.org/2000/svg">
<circle cx="7.75929" cy="8.60353" r="7.75002" fill="white"/>
<path d="M4.65867 5.6373H3.80271L6.1363 12.2338L7.44271 8.50053L6.42983 5.6373H5.52671V5.00875H9.526V5.6373H8.58947L10.923 12.2338L11.7618 9.83668C12.8622 6.76551 10.86 5.80883 10.86 5.12342C10.86 4.43801 11.4156 3.88241 12.101 3.88241C12.1381 3.88241 12.1741 3.88442 12.2094 3.88771C11.0481 2.79142 9.48214 2.11914 7.75906 2.11914C5.5076 2.11914 3.5244 3.26677 2.36182 5.00875H4.6586V5.6373H4.65867Z" fill="#00769D"/>
<path d="M1.27466 8.60353C1.27466 11.0862 2.67005 13.2426 4.71911 14.3323L1.79273 6.06006C1.45937 6.84103 1.27466 7.70069 1.27466 8.60353Z" fill="#00769D"/>
<path d="M13.4029 5.4082C13.4957 5.95435 13.4676 6.56819 13.3253 7.18442H13.3511L13.253 7.4646C13.1949 7.6669 13.1217 7.87385 13.0386 8.07719L10.8074 14.3281C12.8521 13.2372 14.244 11.0831 14.244 8.60357C14.244 7.44171 13.9381 6.35138 13.4029 5.4082Z" fill="#00769D"/>
<path d="M5.75928 14.7734C6.38925 14.9775 7.06122 15.0882 7.7592 15.0882C8.42494 15.0882 9.06717 14.9877 9.67177 14.8013L7.77495 9.43945L5.75928 14.7734Z" fill="#00769D"/>
<path d="M13.2394 3.12343C11.7756 1.65965 9.82936 0.853516 7.75926 0.853516C5.68916 0.853516 3.74297 1.65965 2.27919 3.12343C0.815416 4.58721 0.00927734 6.53339 0.00927734 8.60353C0.00927734 10.6736 0.815416 12.6198 2.27919 14.0836C3.74297 15.5474 5.68919 16.3535 7.75929 16.3535C9.8294 16.3535 11.7756 15.5474 13.2394 14.0836C14.7032 12.6198 15.5093 10.6736 15.5093 8.60353C15.5093 6.53339 14.7031 4.58721 13.2394 3.12343ZM7.75926 15.8068C3.78736 15.8068 0.555982 12.5754 0.555982 8.60353C0.555982 4.63163 3.78736 1.40022 7.75926 1.40022C11.7312 1.40022 14.9625 4.63163 14.9625 8.60353C14.9625 12.5754 11.7312 15.8068 7.75926 15.8068Z" fill="#00769D"/>
</svg>
